<svg xmlns="http://www.w3.org/2000/svg" xmlns:v="https://svgstorm.com"
viewBox = "0 0 294 294"
width="294"
height="294">
<g fill="None" fill-opacity="0.0" stroke="#000000" stroke-opacity="0.00" stroke-width="0.3"><path d="
M 0.00 294.00 
L 294.00 294.00
L 294.00 0.00
L 0.00 0.00
L 0.00 294.00
M 201.00 61.00 
C 197.67 61.00 194.33 61.00 191.00 61.00
C 188.01 54.68 195.52 32.85 184.77 31.23 C 174.02 29.61 159.62 30.43 148.78 30.22 C 137.94 30.01 124.14 30.25 113.00 31.00 C 101.86 31.75 108.38 54.14 106.00 61.00
C 102.33 61.00 98.67 61.00 95.00 61.00
C 96.16 50.32 91.38 28.70 104.25 23.25 C 117.12 17.80 133.76 19.92 148.00 20.00 C 162.24 20.08 179.12 17.71 192.23 22.77 C 205.33 27.84 199.45 50.66 201.00 61.00
M 53.00 68.00 
C 53.00 93.67 53.00 119.33 53.00 145.00
C 42.58 145.04 43.57 156.43 43.00 164.00
C 34.78 160.50 17.40 169.66 11.25 161.75 C 5.10 153.84 10.38 139.10 9.00 129.00 C 7.62 118.90 9.82 104.34 9.00 94.00 C 8.18 83.66 6.59 69.19 19.00 69.00 C 31.41 68.81 40.56 67.07 53.00 68.00
M 72.00 68.00 
C 72.00 93.67 72.00 119.33 72.00 145.00
C 68.00 145.00 64.00 145.00 60.00 145.00
C 60.00 119.33 60.00 93.67 60.00 68.00
C 64.00 68.00 68.00 68.00 72.00 68.00
M 217.00 68.00 
C 217.00 93.67 217.00 119.33 217.00 145.00
C 206.78 145.05 208.80 156.72 208.00 164.00
C 193.00 164.00 178.00 164.00 163.00 164.00
C 163.22 153.61 160.30 140.04 168.75 133.75 C 177.19 127.45 176.98 114.05 176.00 105.00 C 175.02 95.95 165.68 87.16 157.00 87.00
C 157.68 94.58 155.33 101.40 156.00 109.00
C 151.00 109.00 146.00 109.00 141.00 109.00
C 141.13 100.40 141.97 83.66 132.77 88.77 C 123.58 93.88 120.44 101.83 120.00 111.00 C 119.56 120.18 120.98 127.81 128.75 134.25 C 136.52 140.69 133.77 153.75 134.00 164.00
C 119.00 164.00 104.00 164.00 89.00 164.00
C 89.22 158.11 87.70 152.68 87.00 147.00
C 84.09 147.24 81.82 145.24 79.00 145.00
C 79.00 119.33 79.00 93.67 79.00 68.00
C 125.00 68.00 171.00 68.00 217.00 68.00
M 236.00 68.00 
C 236.00 93.67 236.00 119.33 236.00 145.00
C 232.00 145.00 228.00 145.00 224.00 145.00
C 224.00 119.33 224.00 93.67 224.00 68.00
C 228.00 68.00 232.00 68.00 236.00 68.00
M 253.00 164.00 
C 252.43 156.24 253.92 144.43 243.00 145.00
C 243.00 119.33 243.00 93.67 243.00 68.00
C 255.41 66.75 264.62 69.24 277.01 68.99 C 289.39 68.75 287.99 82.56 288.00 93.00 C 288.00 103.45 289.03 117.65 288.00 128.00 C 286.97 138.35 290.41 151.80 285.74 160.74 C 281.08 169.69 260.69 160.80 253.00 164.00
M 135.00 115.00 
C 144.00 115.00 153.00 115.00 162.00 115.00
C 161.33 108.75 163.67 103.26 163.00 97.00
C 175.54 105.67 171.40 128.67 157.00 133.00
C 159.27 145.65 154.10 159.71 156.21 169.23 C 158.33 178.75 151.55 194.92 160.23 203.77 C 168.91 212.62 176.11 228.43 164.00 239.00
C 162.36 233.33 161.94 226.44 162.00 220.00
C 153.75 219.86 148.16 219.83 140.00 220.00 C 131.84 220.17 135.20 232.82 134.00 239.00
C 123.99 232.87 122.49 213.91 132.77 206.77 C 143.05 199.63 140.28 185.05 140.60 174.25 C 140.93 163.45 139.15 146.01 140.00 133.00
C 124.81 128.06 121.61 106.38 133.00 96.00
C 134.54 101.69 134.91 108.59 135.00 115.00
M 82.00 152.00 
C 83.06 159.90 80.59 164.80 82.00 173.00 C 83.41 181.20 80.36 185.26 72.00 184.00 C 63.64 182.74 58.87 184.55 51.00 183.00
C 49.61 175.46 51.15 171.04 50.00 163.00 C 48.85 154.96 51.48 150.46 60.00 152.00 C 68.52 153.54 73.78 150.85 82.00 152.00
M 246.00 152.00 
C 247.06 159.90 244.59 164.80 246.00 173.00 C 247.41 181.20 244.36 185.26 236.00 184.00 C 227.64 182.74 222.87 184.55 215.00 183.00
C 215.00 173.00 215.00 163.00 215.00 153.00
C 225.15 151.99 235.54 151.80 246.00 152.00
M 43.00 171.00 
C 43.57 178.79 42.18 190.87 53.00 191.00
C 52.98 201.64 53.51 207.80 58.92 217.08 C 64.33 226.35 68.12 226.21 72.92 216.92 C 77.73 207.64 79.82 201.89 79.00 191.00
C 89.79 190.88 88.44 178.81 89.00 171.00
C 104.00 171.00 119.00 171.00 134.00 171.00
C 133.15 180.00 136.58 194.22 129.75 200.75 C 122.93 207.28 118.64 214.99 120.00 225.00 C 121.36 235.01 122.75 240.61 132.23 246.77 C 141.71 252.93 141.38 233.99 141.00 226.00
C 146.00 226.00 151.00 226.00 156.00 226.00
C 155.39 233.90 157.72 241.06 157.00 249.00
C 165.23 247.99 174.65 240.93 175.78 231.78 C 176.90 222.63 177.58 208.67 168.75 202.25 C 159.92 195.83 163.51 181.59 163.00 171.00
C 178.00 171.00 193.00 171.00 208.00 171.00
C 208.46 177.80 207.08 187.05 214.08 189.92 C 221.07 192.80 215.30 205.35 219.31 210.69 C 223.31 216.04 225.36 221.62 230.00 226.00
C 240.68 217.48 243.87 204.37 243.00 191.00
C 253.91 190.90 252.66 178.97 253.00 171.00
C 264.84 171.04 276.49 170.32 288.00 169.00
C 288.41 179.11 287.45 187.75 288.00 198.00 C 288.55 208.25 286.97 217.35 288.00 228.00 C 289.03 238.65 286.01 245.76 287.00 257.00 C 287.99 268.24 277.68 267.68 267.93 267.93 C 258.17 268.18 247.81 267.94 238.00 268.00 C 228.19 268.06 218.86 267.98 209.00 268.00 C 199.14 268.02 188.91 268.01 179.00 268.00 C 169.09 267.99 158.91 268.04 149.00 268.00 C 139.09 267.97 128.85 268.09 119.00 268.00 C 109.15 267.91 98.69 268.20 89.00 268.00 C 79.31 267.80 69.41 268.46 60.00 268.00 C 50.59 267.54 38.89 268.99 30.00 268.00 C 21.11 267.01 8.50 269.85 9.00 259.00 C 9.50 248.15 8.77 239.40 9.00 229.00 C 9.23 218.60 8.88 209.21 9.00 199.00 C 9.12 188.79 8.91 179.16 9.00 169.00
C 20.12 170.46 31.50 171.00 43.00 171.00
M 72.00 191.00 
C 72.31 199.55 72.27 208.21 67.00 215.00
C 58.82 209.93 60.04 199.57 60.00 191.00
C 64.00 191.00 68.00 191.00 72.00 191.00
M 236.00 191.00 
C 235.94 199.49 237.58 208.73 231.00 215.00
C 223.42 209.64 223.88 199.58 224.00 191.00
C 228.00 191.00 232.00 191.00 236.00 191.00 Z"/>
</g>
<g fill="None" fill-opacity="0.0" stroke="#00E68B" stroke-opacity="0.92" stroke-width="0.3"><path d="
M 201.00 61.00 
C 199.45 50.66 205.33 27.84 192.23 22.77 C 179.12 17.71 162.24 20.08 148.00 20.00 C 133.76 19.92 117.12 17.80 104.25 23.25 C 91.38 28.70 96.16 50.32 95.00 61.00
C 98.67 61.00 102.33 61.00 106.00 61.00
C 108.38 54.14 101.86 31.75 113.00 31.00 C 124.14 30.25 137.94 30.01 148.78 30.22 C 159.62 30.43 174.02 29.61 184.77 31.23 C 195.52 32.85 188.01 54.68 191.00 61.00
C 194.33 61.00 197.67 61.00 201.00 61.00 Z"/>
</g>
<g fill="None" fill-opacity="0.0" stroke="#00E68B" stroke-opacity="0.99" stroke-width="0.3"><path d="
M 53.00 68.00 
C 40.56 67.07 31.41 68.81 19.00 69.00 C 6.59 69.19 8.18 83.66 9.00 94.00 C 9.82 104.34 7.62 118.90 9.00 129.00 C 10.38 139.10 5.10 153.84 11.25 161.75 C 17.40 169.66 34.78 160.50 43.00 164.00
C 43.57 156.43 42.58 145.04 53.00 145.00
C 53.00 119.33 53.00 93.67 53.00 68.00 Z"/>
</g>
<g fill="None" fill-opacity="0.0" stroke="#00E68B" stroke-opacity="1.00" stroke-width="0.3"><path d="
M 72.00 68.00 
C 68.00 68.00 64.00 68.00 60.00 68.00
C 60.00 93.67 60.00 119.33 60.00 145.00
C 64.00 145.00 68.00 145.00 72.00 145.00
C 72.00 119.33 72.00 93.67 72.00 68.00 Z"/>
</g>
<g fill="None" fill-opacity="0.0" stroke="#00E68B" stroke-opacity="0.99" stroke-width="0.3"><path d="
M 217.00 68.00 
C 171.00 68.00 125.00 68.00 79.00 68.00
C 79.00 93.67 79.00 119.33 79.00 145.00
C 81.82 145.24 84.09 147.24 87.00 147.00
C 87.70 152.68 89.22 158.11 89.00 164.00
C 104.00 164.00 119.00 164.00 134.00 164.00
C 133.77 153.75 136.52 140.69 128.75 134.25 C 120.98 127.81 119.56 120.18 120.00 111.00 C 120.44 101.83 123.58 93.88 132.77 88.77 C 141.97 83.66 141.13 100.40 141.00 109.00
C 146.00 109.00 151.00 109.00 156.00 109.00
C 155.33 101.40 157.68 94.58 157.00 87.00
C 165.68 87.16 175.02 95.95 176.00 105.00 C 176.98 114.05 177.19 127.45 168.75 133.75 C 160.30 140.04 163.22 153.61 163.00 164.00
C 178.00 164.00 193.00 164.00 208.00 164.00
C 208.80 156.72 206.78 145.05 217.00 145.00
C 217.00 119.33 217.00 93.67 217.00 68.00 Z"/>
</g>
<g fill="None" fill-opacity="0.0" stroke="#00E68B" stroke-opacity="1.00" stroke-width="0.3"><path d="
M 236.00 68.00 
C 232.00 68.00 228.00 68.00 224.00 68.00
C 224.00 93.67 224.00 119.33 224.00 145.00
C 228.00 145.00 232.00 145.00 236.00 145.00
C 236.00 119.33 236.00 93.67 236.00 68.00 Z"/>
</g>
<g fill="None" fill-opacity="0.0" stroke="#00E68B" stroke-opacity="0.98" stroke-width="0.3"><path d="
M 253.00 164.00 
C 260.69 160.80 281.08 169.69 285.74 160.74 C 290.41 151.80 286.97 138.35 288.00 128.00 C 289.03 117.65 288.00 103.45 288.00 93.00 C 287.99 82.56 289.39 68.75 277.01 68.99 C 264.62 69.24 255.41 66.75 243.00 68.00
C 243.00 93.67 243.00 119.33 243.00 145.00
C 253.92 144.43 252.43 156.24 253.00 164.00 Z"/>
</g>
<g fill="None" fill-opacity="0.0" stroke="#00E68B" stroke-opacity="0.93" stroke-width="0.3"><path d="
M 135.00 115.00 
C 134.91 108.59 134.54 101.69 133.00 96.00
C 121.61 106.38 124.81 128.06 140.00 133.00
C 139.15 146.01 140.93 163.45 140.60 174.25 C 140.28 185.05 143.05 199.63 132.77 206.77 C 122.49 213.91 123.99 232.87 134.00 239.00
C 135.20 232.82 131.84 220.17 140.00 220.00 C 148.16 219.83 153.75 219.86 162.00 220.00
C 161.94 226.44 162.36 233.33 164.00 239.00
C 176.11 228.43 168.91 212.62 160.23 203.77 C 151.55 194.92 158.33 178.75 156.21 169.23 C 154.10 159.71 159.27 145.65 157.00 133.00
C 171.40 128.67 175.54 105.67 163.00 97.00
C 163.67 103.26 161.33 108.75 162.00 115.00
C 153.00 115.00 144.00 115.00 135.00 115.00 Z"/>
</g>
<g fill="None" fill-opacity="0.0" stroke="#00E58B" stroke-opacity="0.98" stroke-width="0.3"><path d="
M 82.00 152.00 
C 73.78 150.85 68.52 153.54 60.00 152.00 C 51.48 150.46 48.85 154.96 50.00 163.00 C 51.15 171.04 49.61 175.46 51.00 183.00
C 58.87 184.55 63.64 182.74 72.00 184.00 C 80.36 185.26 83.41 181.20 82.00 173.00 C 80.59 164.80 83.06 159.90 82.00 152.00 Z"/>
</g>
<g fill="None" fill-opacity="0.0" stroke="#00E58B" stroke-opacity="0.98" stroke-width="0.3"><path d="
M 246.00 152.00 
C 235.54 151.80 225.15 151.99 215.00 153.00
C 215.00 163.00 215.00 173.00 215.00 183.00
C 222.87 184.55 227.64 182.74 236.00 184.00 C 244.36 185.26 247.41 181.20 246.00 173.00 C 244.59 164.80 247.06 159.90 246.00 152.00 Z"/>
</g>
<g fill="None" fill-opacity="0.0" stroke="#00E68B" stroke-opacity="0.99" stroke-width="0.3"><path d="
M 43.00 171.00 
C 31.50 171.00 20.12 170.46 9.00 169.00
C 8.91 179.16 9.12 188.79 9.00 199.00 C 8.88 209.21 9.23 218.60 9.00 229.00 C 8.77 239.40 9.50 248.15 9.00 259.00 C 8.50 269.85 21.11 267.01 30.00 268.00 C 38.89 268.99 50.59 267.54 60.00 268.00 C 69.41 268.46 79.31 267.80 89.00 268.00 C 98.69 268.20 109.15 267.91 119.00 268.00 C 128.85 268.09 139.09 267.97 149.00 268.00 C 158.91 268.04 169.09 267.99 179.00 268.00 C 188.91 268.01 199.14 268.02 209.00 268.00 C 218.86 267.98 228.19 268.06 238.00 268.00 C 247.81 267.94 258.17 268.18 267.93 267.93 C 277.68 267.68 287.99 268.24 287.00 257.00 C 286.01 245.76 289.03 238.65 288.00 228.00 C 286.97 217.35 288.55 208.25 288.00 198.00 C 287.45 187.75 288.41 179.11 288.00 169.00
C 276.49 170.32 264.84 171.04 253.00 171.00
C 252.66 178.97 253.91 190.90 243.00 191.00
C 243.87 204.37 240.68 217.48 230.00 226.00
C 225.36 221.62 223.31 216.04 219.31 210.69 C 215.30 205.35 221.07 192.80 214.08 189.92 C 207.08 187.05 208.46 177.80 208.00 171.00
C 193.00 171.00 178.00 171.00 163.00 171.00
C 163.51 181.59 159.92 195.83 168.75 202.25 C 177.58 208.67 176.90 222.63 175.78 231.78 C 174.65 240.93 165.23 247.99 157.00 249.00
C 157.72 241.06 155.39 233.90 156.00 226.00
C 151.00 226.00 146.00 226.00 141.00 226.00
C 141.38 233.99 141.71 252.93 132.23 246.77 C 122.75 240.61 121.36 235.01 120.00 225.00 C 118.64 214.99 122.93 207.28 129.75 200.75 C 136.58 194.22 133.15 180.00 134.00 171.00
C 119.00 171.00 104.00 171.00 89.00 171.00
C 88.44 178.81 89.79 190.88 79.00 191.00
C 79.82 201.89 77.73 207.64 72.92 216.92 C 68.12 226.21 64.33 226.35 58.92 217.08 C 53.51 207.80 52.98 201.64 53.00 191.00
C 42.18 190.87 43.57 178.79 43.00 171.00 Z"/>
</g>
<g fill="None" fill-opacity="0.0" stroke="#00E68B" stroke-opacity="0.94" stroke-width="0.3"><path d="
M 72.00 191.00 
C 68.00 191.00 64.00 191.00 60.00 191.00
C 60.04 199.57 58.82 209.93 67.00 215.00
C 72.27 208.21 72.31 199.55 72.00 191.00 Z"/>
</g>
<g fill="None" fill-opacity="0.0" stroke="#00E68B" stroke-opacity="0.95" stroke-width="0.3"><path d="
M 236.00 191.00 
C 232.00 191.00 228.00 191.00 224.00 191.00
C 223.88 199.58 223.42 209.64 231.00 215.00
C 237.58 208.73 235.94 199.49 236.00 191.00 Z"/>
</g>
<g fill="#000000" fill-opacity="0.00" stroke="None">
<path d="
M 0.00 294.00 
L 294.00 294.00
L 294.00 0.00
L 0.00 0.00
L 0.00 294.00
M 201.00 61.00 
C 197.67 61.00 194.33 61.00 191.00 61.00
C 188.01 54.68 195.52 32.85 184.77 31.23 C 174.02 29.61 159.62 30.43 148.78 30.22 C 137.94 30.01 124.14 30.25 113.00 31.00 C 101.86 31.75 108.38 54.14 106.00 61.00
C 102.33 61.00 98.67 61.00 95.00 61.00
C 96.16 50.32 91.38 28.70 104.25 23.25 C 117.12 17.80 133.76 19.92 148.00 20.00 C 162.24 20.08 179.12 17.71 192.23 22.77 C 205.33 27.84 199.45 50.66 201.00 61.00
M 53.00 68.00 
C 53.00 93.67 53.00 119.33 53.00 145.00
C 42.58 145.04 43.57 156.43 43.00 164.00
C 34.78 160.50 17.40 169.66 11.25 161.75 C 5.10 153.84 10.38 139.10 9.00 129.00 C 7.62 118.90 9.82 104.34 9.00 94.00 C 8.18 83.66 6.59 69.19 19.00 69.00 C 31.41 68.81 40.56 67.07 53.00 68.00
M 72.00 68.00 
C 72.00 93.67 72.00 119.33 72.00 145.00
C 68.00 145.00 64.00 145.00 60.00 145.00
C 60.00 119.33 60.00 93.67 60.00 68.00
C 64.00 68.00 68.00 68.00 72.00 68.00
M 217.00 68.00 
C 217.00 93.67 217.00 119.33 217.00 145.00
C 206.78 145.05 208.80 156.72 208.00 164.00
C 193.00 164.00 178.00 164.00 163.00 164.00
C 163.22 153.61 160.30 140.04 168.75 133.75 C 177.19 127.45 176.98 114.05 176.00 105.00 C 175.02 95.95 165.68 87.16 157.00 87.00
C 157.68 94.58 155.33 101.40 156.00 109.00
C 151.00 109.00 146.00 109.00 141.00 109.00
C 141.13 100.40 141.97 83.66 132.77 88.77 C 123.58 93.88 120.44 101.83 120.00 111.00 C 119.56 120.18 120.98 127.81 128.75 134.25 C 136.52 140.69 133.77 153.75 134.00 164.00
C 119.00 164.00 104.00 164.00 89.00 164.00
C 89.22 158.11 87.70 152.68 87.00 147.00
C 84.09 147.24 81.82 145.24 79.00 145.00
C 79.00 119.33 79.00 93.67 79.00 68.00
C 125.00 68.00 171.00 68.00 217.00 68.00
M 236.00 68.00 
C 236.00 93.67 236.00 119.33 236.00 145.00
C 232.00 145.00 228.00 145.00 224.00 145.00
C 224.00 119.33 224.00 93.67 224.00 68.00
C 228.00 68.00 232.00 68.00 236.00 68.00
M 253.00 164.00 
C 252.43 156.24 253.92 144.43 243.00 145.00
C 243.00 119.33 243.00 93.67 243.00 68.00
C 255.41 66.75 264.62 69.24 277.01 68.99 C 289.39 68.75 287.99 82.56 288.00 93.00 C 288.00 103.45 289.03 117.65 288.00 128.00 C 286.97 138.35 290.41 151.80 285.74 160.74 C 281.08 169.69 260.69 160.80 253.00 164.00
M 135.00 115.00 
C 144.00 115.00 153.00 115.00 162.00 115.00
C 161.33 108.75 163.67 103.26 163.00 97.00
C 175.54 105.67 171.40 128.67 157.00 133.00
C 159.27 145.65 154.10 159.71 156.21 169.23 C 158.33 178.75 151.55 194.92 160.23 203.77 C 168.91 212.62 176.11 228.43 164.00 239.00
C 162.36 233.33 161.94 226.44 162.00 220.00
C 153.75 219.86 148.16 219.83 140.00 220.00 C 131.84 220.17 135.20 232.82 134.00 239.00
C 123.99 232.87 122.49 213.91 132.77 206.77 C 143.05 199.63 140.28 185.05 140.60 174.25 C 140.93 163.45 139.15 146.01 140.00 133.00
C 124.81 128.06 121.61 106.38 133.00 96.00
C 134.54 101.69 134.91 108.59 135.00 115.00
M 82.00 152.00 
C 83.06 159.90 80.59 164.80 82.00 173.00 C 83.41 181.20 80.36 185.26 72.00 184.00 C 63.64 182.74 58.87 184.55 51.00 183.00
C 49.61 175.46 51.15 171.04 50.00 163.00 C 48.85 154.96 51.48 150.46 60.00 152.00 C 68.52 153.54 73.78 150.85 82.00 152.00
M 246.00 152.00 
C 247.06 159.90 244.59 164.80 246.00 173.00 C 247.41 181.20 244.36 185.26 236.00 184.00 C 227.64 182.74 222.87 184.55 215.00 183.00
C 215.00 173.00 215.00 163.00 215.00 153.00
C 225.15 151.99 235.54 151.80 246.00 152.00
M 43.00 171.00 
C 43.57 178.79 42.18 190.87 53.00 191.00
C 52.98 201.64 53.51 207.80 58.92 217.08 C 64.33 226.35 68.12 226.21 72.92 216.92 C 77.73 207.64 79.82 201.89 79.00 191.00
C 89.79 190.88 88.44 178.81 89.00 171.00
C 104.00 171.00 119.00 171.00 134.00 171.00
C 133.15 180.00 136.58 194.22 129.75 200.75 C 122.93 207.28 118.64 214.99 120.00 225.00 C 121.36 235.01 122.75 240.61 132.23 246.77 C 141.71 252.93 141.38 233.99 141.00 226.00
C 146.00 226.00 151.00 226.00 156.00 226.00
C 155.39 233.90 157.72 241.06 157.00 249.00
C 165.23 247.99 174.65 240.93 175.78 231.78 C 176.90 222.63 177.58 208.67 168.75 202.25 C 159.92 195.83 163.51 181.59 163.00 171.00
C 178.00 171.00 193.00 171.00 208.00 171.00
C 208.46 177.80 207.08 187.05 214.08 189.92 C 221.07 192.80 215.30 205.35 219.31 210.69 C 223.31 216.04 225.36 221.62 230.00 226.00
C 240.68 217.48 243.87 204.37 243.00 191.00
C 253.91 190.90 252.66 178.97 253.00 171.00
C 264.84 171.04 276.49 170.32 288.00 169.00
C 288.41 179.11 287.45 187.75 288.00 198.00 C 288.55 208.25 286.97 217.35 288.00 228.00 C 289.03 238.65 286.01 245.76 287.00 257.00 C 287.99 268.24 277.68 267.68 267.93 267.93 C 258.17 268.18 247.81 267.94 238.00 268.00 C 228.19 268.06 218.86 267.98 209.00 268.00 C 199.14 268.02 188.91 268.01 179.00 268.00 C 169.09 267.99 158.91 268.04 149.00 268.00 C 139.09 267.97 128.85 268.09 119.00 268.00 C 109.15 267.91 98.69 268.20 89.00 268.00 C 79.31 267.80 69.41 268.46 60.00 268.00 C 50.59 267.54 38.89 268.99 30.00 268.00 C 21.11 267.01 8.50 269.85 9.00 259.00 C 9.50 248.15 8.77 239.40 9.00 229.00 C 9.23 218.60 8.88 209.21 9.00 199.00 C 9.12 188.79 8.91 179.16 9.00 169.00
C 20.12 170.46 31.50 171.00 43.00 171.00
M 72.00 191.00 
C 72.31 199.55 72.27 208.21 67.00 215.00
C 58.82 209.93 60.04 199.57 60.00 191.00
C 64.00 191.00 68.00 191.00 72.00 191.00
M 236.00 191.00 
C 235.94 199.49 237.58 208.73 231.00 215.00
C 223.42 209.64 223.88 199.58 224.00 191.00
C 228.00 191.00 232.00 191.00 236.00 191.00 Z"/>
</g>
<g fill="#00E68B" fill-opacity="0.92" stroke="None">
<path d="
M 201.00 61.00 
C 199.45 50.66 205.33 27.84 192.23 22.77 C 179.12 17.71 162.24 20.08 148.00 20.00 C 133.76 19.92 117.12 17.80 104.25 23.25 C 91.38 28.70 96.16 50.32 95.00 61.00
C 98.67 61.00 102.33 61.00 106.00 61.00
C 108.38 54.14 101.86 31.75 113.00 31.00 C 124.14 30.25 137.94 30.01 148.78 30.22 C 159.62 30.43 174.02 29.61 184.77 31.23 C 195.52 32.85 188.01 54.68 191.00 61.00
C 194.33 61.00 197.67 61.00 201.00 61.00 Z"/>
</g>
<g fill="#00E68B" fill-opacity="0.99" stroke="None">
<path d="
M 53.00 68.00 
C 40.56 67.07 31.41 68.81 19.00 69.00 C 6.59 69.19 8.18 83.66 9.00 94.00 C 9.82 104.34 7.62 118.90 9.00 129.00 C 10.38 139.10 5.10 153.84 11.25 161.75 C 17.40 169.66 34.78 160.50 43.00 164.00
C 43.57 156.43 42.58 145.04 53.00 145.00
C 53.00 119.33 53.00 93.67 53.00 68.00 Z"/>
</g>
<g fill="#00E68B" fill-opacity="1.00" stroke="None">
<path d="
M 72.00 68.00 
C 68.00 68.00 64.00 68.00 60.00 68.00
C 60.00 93.67 60.00 119.33 60.00 145.00
C 64.00 145.00 68.00 145.00 72.00 145.00
C 72.00 119.33 72.00 93.67 72.00 68.00 Z"/>
</g>
<g fill="#00E68B" fill-opacity="0.99" stroke="None">
<path d="
M 217.00 68.00 
C 171.00 68.00 125.00 68.00 79.00 68.00
C 79.00 93.67 79.00 119.33 79.00 145.00
C 81.82 145.24 84.09 147.24 87.00 147.00
C 87.70 152.68 89.22 158.11 89.00 164.00
C 104.00 164.00 119.00 164.00 134.00 164.00
C 133.77 153.75 136.52 140.69 128.75 134.25 C 120.98 127.81 119.56 120.18 120.00 111.00 C 120.44 101.83 123.58 93.88 132.77 88.77 C 141.97 83.66 141.13 100.40 141.00 109.00
C 146.00 109.00 151.00 109.00 156.00 109.00
C 155.33 101.40 157.68 94.58 157.00 87.00
C 165.68 87.16 175.02 95.95 176.00 105.00 C 176.98 114.05 177.19 127.45 168.75 133.75 C 160.30 140.04 163.22 153.61 163.00 164.00
C 178.00 164.00 193.00 164.00 208.00 164.00
C 208.80 156.72 206.78 145.05 217.00 145.00
C 217.00 119.33 217.00 93.67 217.00 68.00 Z"/>
</g>
<g fill="#00E68B" fill-opacity="1.00" stroke="None">
<path d="
M 236.00 68.00 
C 232.00 68.00 228.00 68.00 224.00 68.00
C 224.00 93.67 224.00 119.33 224.00 145.00
C 228.00 145.00 232.00 145.00 236.00 145.00
C 236.00 119.33 236.00 93.67 236.00 68.00 Z"/>
</g>
<g fill="#00E68B" fill-opacity="0.98" stroke="None">
<path d="
M 253.00 164.00 
C 260.69 160.80 281.08 169.69 285.74 160.74 C 290.41 151.80 286.97 138.35 288.00 128.00 C 289.03 117.65 288.00 103.45 288.00 93.00 C 287.99 82.56 289.39 68.75 277.01 68.99 C 264.62 69.24 255.41 66.75 243.00 68.00
C 243.00 93.67 243.00 119.33 243.00 145.00
C 253.92 144.43 252.43 156.24 253.00 164.00 Z"/>
</g>
<g fill="#00E68B" fill-opacity="0.93" stroke="None">
<path d="
M 135.00 115.00 
C 134.91 108.59 134.54 101.69 133.00 96.00
C 121.61 106.38 124.81 128.06 140.00 133.00
C 139.15 146.01 140.93 163.45 140.60 174.25 C 140.28 185.05 143.05 199.63 132.77 206.77 C 122.49 213.91 123.99 232.87 134.00 239.00
C 135.20 232.82 131.84 220.17 140.00 220.00 C 148.16 219.83 153.75 219.86 162.00 220.00
C 161.94 226.44 162.36 233.33 164.00 239.00
C 176.11 228.43 168.91 212.62 160.23 203.77 C 151.55 194.92 158.33 178.75 156.21 169.23 C 154.10 159.71 159.27 145.65 157.00 133.00
C 171.40 128.67 175.54 105.67 163.00 97.00
C 163.67 103.26 161.33 108.75 162.00 115.00
C 153.00 115.00 144.00 115.00 135.00 115.00 Z"/>
</g>
<g fill="#00E58B" fill-opacity="0.98" stroke="None">
<path d="
M 82.00 152.00 
C 73.78 150.85 68.52 153.54 60.00 152.00 C 51.48 150.46 48.85 154.96 50.00 163.00 C 51.15 171.04 49.61 175.46 51.00 183.00
C 58.87 184.55 63.64 182.74 72.00 184.00 C 80.36 185.26 83.41 181.20 82.00 173.00 C 80.59 164.80 83.06 159.90 82.00 152.00 Z"/>
</g>
<g fill="#00E58B" fill-opacity="0.98" stroke="None">
<path d="
M 246.00 152.00 
C 235.54 151.80 225.15 151.99 215.00 153.00
C 215.00 163.00 215.00 173.00 215.00 183.00
C 222.87 184.55 227.64 182.74 236.00 184.00 C 244.36 185.26 247.41 181.20 246.00 173.00 C 244.59 164.80 247.06 159.90 246.00 152.00 Z"/>
</g>
<g fill="#00E68B" fill-opacity="0.99" stroke="None">
<path d="
M 43.00 171.00 
C 31.50 171.00 20.12 170.46 9.00 169.00
C 8.91 179.16 9.12 188.79 9.00 199.00 C 8.88 209.21 9.23 218.60 9.00 229.00 C 8.77 239.40 9.50 248.15 9.00 259.00 C 8.50 269.85 21.11 267.01 30.00 268.00 C 38.89 268.99 50.59 267.54 60.00 268.00 C 69.41 268.46 79.31 267.80 89.00 268.00 C 98.69 268.20 109.15 267.91 119.00 268.00 C 128.85 268.09 139.09 267.97 149.00 268.00 C 158.91 268.04 169.09 267.99 179.00 268.00 C 188.91 268.01 199.14 268.02 209.00 268.00 C 218.86 267.98 228.19 268.06 238.00 268.00 C 247.81 267.94 258.17 268.18 267.93 267.93 C 277.68 267.68 287.99 268.24 287.00 257.00 C 286.01 245.76 289.03 238.65 288.00 228.00 C 286.97 217.35 288.55 208.25 288.00 198.00 C 287.45 187.75 288.41 179.11 288.00 169.00
C 276.49 170.32 264.84 171.04 253.00 171.00
C 252.66 178.97 253.91 190.90 243.00 191.00
C 243.87 204.37 240.68 217.48 230.00 226.00
C 225.36 221.62 223.31 216.04 219.31 210.69 C 215.30 205.35 221.07 192.80 214.08 189.92 C 207.08 187.05 208.46 177.80 208.00 171.00
C 193.00 171.00 178.00 171.00 163.00 171.00
C 163.51 181.59 159.92 195.83 168.75 202.25 C 177.58 208.67 176.90 222.63 175.78 231.78 C 174.65 240.93 165.23 247.99 157.00 249.00
C 157.72 241.06 155.39 233.90 156.00 226.00
C 151.00 226.00 146.00 226.00 141.00 226.00
C 141.38 233.99 141.71 252.93 132.23 246.77 C 122.75 240.61 121.36 235.01 120.00 225.00 C 118.64 214.99 122.93 207.28 129.75 200.75 C 136.58 194.22 133.15 180.00 134.00 171.00
C 119.00 171.00 104.00 171.00 89.00 171.00
C 88.44 178.81 89.79 190.88 79.00 191.00
C 79.82 201.89 77.73 207.64 72.92 216.92 C 68.12 226.21 64.33 226.35 58.92 217.08 C 53.51 207.80 52.98 201.64 53.00 191.00
C 42.18 190.87 43.57 178.79 43.00 171.00 Z"/>
</g>
<g fill="#00E68B" fill-opacity="0.94" stroke="None">
<path d="
M 72.00 191.00 
C 68.00 191.00 64.00 191.00 60.00 191.00
C 60.04 199.57 58.82 209.93 67.00 215.00
C 72.27 208.21 72.31 199.55 72.00 191.00 Z"/>
</g>
<g fill="#00E68B" fill-opacity="0.95" stroke="None">
<path d="
M 236.00 191.00 
C 232.00 191.00 228.00 191.00 224.00 191.00
C 223.88 199.58 223.42 209.64 231.00 215.00
C 237.58 208.73 235.94 199.49 236.00 191.00 Z"/>
</g>
</svg>